<?xml version="1.0" encoding="iso-8859-1"?>
<!-- Generator: Adobe Illustrator 16.0.0, SVG Export Plug-In . SVG Version: 6.00 Build 0)  -->
<!DOCTYPE svg PUBLIC "-//W3C//DTD SVG 1.1//EN" "http://www.w3.org/Graphics/SVG/1.1/DTD/svg11.dtd">
<svg version="1.1" id="Capa_1" xmlns="http://www.w3.org/2000/svg" xmlns:xlink="http://www.w3.org/1999/xlink" x="0px" y="0px"
	 width="97.75px" height="97.75px" viewBox="0 0 97.75 97.75" style="enable-background:new 0 0 97.75 97.75;" xml:space="preserve"
	>
<g>
	<path d="M48.875,0C21.883,0,0,21.882,0,48.875S21.883,97.75,48.875,97.75S97.75,75.868,97.75,48.875S75.867,0,48.875,0z
		 M68.16,69.341c-14.602,0-19.664-6.582-22.365-14.769l-2.701-8.439C41.069,39.971,38.705,35.16,31.28,35.16
		c-5.15,0-10.381,3.714-10.381,14.095c0,8.103,4.135,13.166,9.959,13.166c6.582,0,10.971-4.896,10.971-4.896l2.701,7.344
		c0,0-4.557,4.472-14.094,4.472c-11.816,0-18.4-6.92-18.4-19.749c0-13.334,6.584-21.183,18.99-21.183
		c11.225,0,16.881,4.051,20.426,15.022l2.782,8.439c2.025,6.161,5.57,10.634,14.097,10.634c5.737,0,8.774-1.266,8.774-4.388
		c0-2.448-1.434-4.22-5.735-5.233l-5.742-1.35c-7.002-1.688-9.789-5.317-9.789-11.057c0-9.199,7.429-12.068,15.022-12.068
		c8.609,0,13.841,3.122,14.517,10.718l-8.438,1.013c-0.338-3.629-2.531-5.148-6.582-5.148c-3.715,0-5.992,1.688-5.992,4.559
		c0,2.531,1.096,4.051,4.811,4.895l5.4,1.182c7.258,1.688,11.141,5.232,11.141,12.068C85.715,66.135,78.627,69.341,68.16,69.341z"/>
</g>
<g>
</g>
<g>
</g>
<g>
</g>
<g>
</g>
<g>
</g>
<g>
</g>
<g>
</g>
<g>
</g>
<g>
</g>
<g>
</g>
<g>
</g>
<g>
</g>
<g>
</g>
<g>
</g>
<g>
</g>
</svg>
